# xmcd
#
# Track frame offsets:
#	150
#	30252
#	48742
#	71711
#	92201
#	111330
#	135151
#	147913
#	157544
#	189430
#	211464
#	226828
#
# Disc length: 3201 seconds
#
# Revision: 1
# Processed by: cddbd v1.5.2PL0 Copyright (c) Steve Scherf et al.
# Submitted via: dBpowerAMP V4.0
#
DISCID=9b0c7f0c
DTITLE=Gene Lake - Cycles
DYEAR=2000
DGENRE=Jazz+Funk
TTITLE0=Steppin' Up
TTITLE1=Face Da Funk
TTITLE2=Us
TTITLE3=Cycles
TTITLE4=After Thought
TTITLE5=Grace Under Pressure
TTITLE6=Lovesong
TTITLE7=The Verdict
TTITLE8=The Real McCoy
TTITLE9=Mental Funk
TTITLE10=New Day
TTITLE11=The End
EXTD=1 of the track name was wrong
EXTT0=
EXTT1=
EXTT2=
EXTT3=
EXTT4=
EXTT5=
EXTT6=
EXTT7=
EXTT8=
EXTT9=
EXTT10=
EXTT11=
PLAYORDER=
